<svg width="50" height="50" viewBox="0 0 50 50" fill="none" xmlns="http://www.w3.org/2000/svg">
<circle cx="25" cy="25" r="23.5" fill="white" stroke="#495464" stroke-width="3"/>
<g clip-path="url(#clip0_7_50)">
<path d="M27.5 40C27.2295 40 26.9664 39.9123 26.75 39.75L21.75 36C21.5948 35.8836 21.4688 35.7326 21.382 35.559C21.2952 35.3854 21.25 35.1941 21.25 35V27.975L12.48 18.1088C11.8572 17.4061 11.4505 16.5385 11.3089 15.6103C11.1672 14.6821 11.2967 13.7327 11.6817 12.8763C12.0666 12.0198 12.6907 11.2928 13.479 10.7826C14.2672 10.2723 15.186 10.0006 16.125 10H33.875C34.8139 10.0011 35.7325 10.2733 36.5204 10.7839C37.3083 11.2945 37.932 12.0217 38.3166 12.8782C38.7012 13.7347 38.8302 14.6841 38.6882 15.6122C38.5463 16.5403 38.1393 17.4076 37.5163 18.11L28.75 27.975V38.75C28.75 39.0815 28.6183 39.3995 28.3839 39.6339C28.1495 39.8683 27.8315 40 27.5 40ZM23.75 34.375L26.25 36.25V27.5C26.2503 27.1939 26.3628 26.8986 26.5663 26.67L35.6513 16.4488C35.9542 16.1064 36.1519 15.6838 36.2206 15.2318C36.2892 14.7798 36.226 14.3176 36.0385 13.9007C35.8509 13.4838 35.547 13.1298 35.1633 12.8814C34.7795 12.6329 34.3322 12.5005 33.875 12.5H16.125C15.6681 12.5007 15.221 12.6332 14.8375 12.8816C14.454 13.13 14.1503 13.4837 13.9628 13.9004C13.7753 14.3171 13.712 14.7791 13.7804 15.2309C13.8489 15.6826 14.0462 16.1051 14.3488 16.4475L23.435 26.67C23.638 26.8988 23.7501 27.1941 23.75 27.5V34.375Z" fill="#495464"/>
</g>
<defs>
<clipPath id="clip0_7_50">
<rect width="30" height="30" fill="white" transform="translate(10 10)"/>
</clipPath>
</defs>
</svg>
