<svg width="16" height="15" viewBox="0 0 16 15" fill="none" xmlns="http://www.w3.org/2000/svg">
<g clip-path="url(#clip0_3_22)">
<path d="M15.2194 0.717502C14.794 0.29325 14.2173 0.0549622 13.616 0.0549622C13.0148 0.0549622 12.4381 0.29325 12.0127 0.717502L1.83408 10.8825C1.5426 11.172 1.31148 11.5163 1.15411 11.8955C0.996733 12.2747 0.916221 12.6814 0.91723 13.0919V14.375C0.91723 14.5408 0.983166 14.6997 1.10053 14.8169C1.2179 14.9342 1.37708 15 1.54306 15H2.8279C3.23893 15.0012 3.6461 14.9209 4.02585 14.7638C4.4056 14.6068 4.75038 14.376 5.04023 14.085L15.2194 3.91938C15.6441 3.4945 15.8825 2.91873 15.8825 2.31844C15.8825 1.71815 15.6441 1.14238 15.2194 0.717502ZM4.1553 13.2013C3.80233 13.5514 3.32542 13.7486 2.8279 13.75H2.1689V13.0919C2.16827 12.8456 2.21656 12.6016 2.31099 12.374C2.40541 12.1465 2.5441 11.9399 2.71901 11.7663L10.4437 4.05188L11.8831 5.48938L4.1553 13.2013ZM14.3339 3.03563L12.7655 4.6025L11.3261 3.16813L12.8951 1.60125C12.9896 1.50707 13.1018 1.4324 13.2252 1.38151C13.3486 1.33061 13.4808 1.3045 13.6143 1.30464C13.7478 1.30479 13.88 1.33119 14.0033 1.38235C14.1266 1.43351 14.2386 1.50843 14.3329 1.60281C14.4272 1.6972 14.502 1.80922 14.553 1.93246C14.6039 2.05571 14.6301 2.18777 14.6299 2.32111C14.6298 2.45445 14.6034 2.58645 14.5521 2.70958C14.5009 2.83272 14.4259 2.94457 14.3314 3.03875L14.3339 3.03563Z" fill="#495464"/>
</g>
<defs>
<clipPath id="clip0_3_22">
<rect width="15.02" height="15" fill="white" transform="translate(0.917236)"/>
</clipPath>
</defs>
</svg>
