<svg width="40" height="40" viewBox="0 0 40 40" fill="none" xmlns="http://www.w3.org/2000/svg">
<g clip-path="url(#clip0_3_28)">
<path d="M20 13.3333C18.6814 13.3333 17.3925 13.7243 16.2962 14.4569C15.1999 15.1894 14.3454 16.2306 13.8408 17.4488C13.3362 18.6669 13.2042 20.0074 13.4614 21.3006C13.7186 22.5938 14.3536 23.7817 15.2859 24.714C16.2183 25.6464 17.4062 26.2813 18.6994 26.5386C19.9926 26.7958 21.333 26.6638 22.5512 26.1592C23.7694 25.6546 24.8106 24.8001 25.5431 23.7038C26.2757 22.6075 26.6667 21.3185 26.6667 20C26.6667 18.2319 25.9643 16.5362 24.714 15.2859C23.4638 14.0357 21.7681 13.3333 20 13.3333ZM20 23.3333C19.3407 23.3333 18.6962 23.1378 18.1481 22.7716C17.5999 22.4053 17.1727 21.8847 16.9204 21.2756C16.6681 20.6665 16.6021 19.9963 16.7307 19.3497C16.8593 18.7031 17.1768 18.1091 17.643 17.643C18.1091 17.1768 18.7031 16.8593 19.3497 16.7307C19.9963 16.6021 20.6665 16.6681 21.2756 16.9204C21.8847 17.1727 22.4053 17.5999 22.7716 18.1481C23.1378 18.6963 23.3333 19.3407 23.3333 20C23.3333 20.8841 22.9821 21.7319 22.357 22.357C21.7319 22.9821 20.884 23.3333 20 23.3333Z" fill="#495464"/>
<path d="M35.49 23.1667L34.75 22.74C35.0832 20.9274 35.0832 19.0693 34.75 17.2567L35.49 16.83C36.0591 16.5017 36.5579 16.0645 36.958 15.5434C37.3581 15.0224 37.6517 14.4276 37.8219 13.793C37.9922 13.1585 38.0357 12.4966 37.9502 11.8453C37.8647 11.1939 37.6517 10.5657 37.3233 9.99667C36.995 9.42761 36.5579 8.92878 36.0368 8.52867C35.5157 8.12856 34.9209 7.83501 34.2864 7.66477C33.6518 7.49453 32.99 7.45094 32.3386 7.53648C31.6872 7.62202 31.0591 7.83503 30.49 8.16333L29.7483 8.59167C28.3476 7.39486 26.7378 6.46708 25 5.855V5C25 3.67392 24.4732 2.40215 23.5355 1.46447C22.5979 0.526784 21.3261 0 20 0C18.6739 0 17.4022 0.526784 16.4645 1.46447C15.5268 2.40215 15 3.67392 15 5V5.855C13.2623 6.46928 11.6531 7.39933 10.2533 8.59833L9.50834 8.16667C8.35907 7.50363 6.99348 7.32429 5.71198 7.6681C4.43048 8.01192 3.33805 8.85073 2.67501 10C2.01197 11.1493 1.83263 12.5149 2.17645 13.7964C2.52026 15.0779 3.35907 16.1703 4.50834 16.8333L5.24834 17.26C4.91519 19.0726 4.91519 20.9307 5.24834 22.7433L4.50834 23.17C3.35907 23.833 2.52026 24.9255 2.17645 26.207C1.83263 27.4885 2.01197 28.8541 2.67501 30.0033C3.33805 31.1526 4.43048 31.9914 5.71198 32.3352C6.99348 32.679 8.35907 32.4997 9.50834 31.8367L10.25 31.4083C11.6513 32.6053 13.2616 33.5331 15 34.145V35C15 36.3261 15.5268 37.5979 16.4645 38.5355C17.4022 39.4732 18.6739 40 20 40C21.3261 40 22.5979 39.4732 23.5355 38.5355C24.4732 37.5979 25 36.3261 25 35V34.145C26.7377 33.5307 28.3469 32.6007 29.7467 31.4017L30.4917 31.8317C31.641 32.4947 33.0065 32.674 34.288 32.3302C35.5695 31.9864 36.662 31.1476 37.325 29.9983C37.9881 28.8491 38.1674 27.4835 37.8236 26.202C37.4798 24.9205 36.641 23.828 35.4917 23.165L35.49 23.1667ZM31.2433 16.8733C31.8078 18.9184 31.8078 21.0782 31.2433 23.1233C31.1448 23.4793 31.1673 23.8579 31.3072 24.1997C31.4472 24.5415 31.6968 24.8271 32.0167 25.0117L33.8233 26.055C34.2064 26.276 34.4859 26.6401 34.6004 27.0672C34.715 27.4944 34.6552 27.9495 34.4342 28.3325C34.2132 28.7155 33.8491 28.995 33.4219 29.1096C32.9948 29.2242 32.5397 29.1643 32.1567 28.9433L30.3467 27.8967C30.0265 27.7112 29.6537 27.6376 29.2871 27.6874C28.9205 27.7372 28.5808 27.9076 28.3217 28.1717C26.8382 29.6861 24.9693 30.7666 22.9167 31.2967C22.5584 31.3888 22.2409 31.5975 22.0143 31.8899C21.7877 32.1823 21.6648 32.5417 21.665 32.9117V35C21.665 35.442 21.4894 35.866 21.1769 36.1785C20.8643 36.4911 20.4404 36.6667 19.9983 36.6667C19.5563 36.6667 19.1324 36.4911 18.8198 36.1785C18.5073 35.866 18.3317 35.442 18.3317 35V32.9133C18.3319 32.5434 18.209 32.1839 17.9824 31.8915C17.7557 31.5991 17.4383 31.3904 17.08 31.2983C15.0273 30.7661 13.1589 29.6833 11.6767 28.1667C11.4176 27.9026 11.0779 27.7322 10.7113 27.6824C10.3446 27.6326 9.97185 27.7062 9.65168 27.8917L7.84501 28.9367C7.65539 29.0478 7.44566 29.1204 7.22789 29.1502C7.01011 29.1799 6.7886 29.1663 6.5761 29.1102C6.3636 29.054 6.16431 28.9563 5.98971 28.8228C5.81511 28.6893 5.66864 28.5226 5.55874 28.3322C5.44884 28.1419 5.37767 27.9317 5.34934 27.7137C5.32101 27.4957 5.33607 27.2743 5.39366 27.0622C5.45125 26.8501 5.55023 26.6514 5.6849 26.4777C5.81957 26.304 5.98727 26.1586 6.17834 26.05L7.98501 25.0067C8.30493 24.8221 8.55447 24.5365 8.69444 24.1947C8.83442 23.8529 8.85689 23.4743 8.75834 23.1183C8.19394 21.0732 8.19394 18.9134 8.75834 16.8683C8.85512 16.5131 8.83157 16.1359 8.69137 15.7955C8.55117 15.4551 8.3022 15.1707 7.98334 14.9867L6.17668 13.9433C5.79366 13.7223 5.51413 13.3582 5.39958 12.9311C5.28502 12.504 5.34483 12.0488 5.56584 11.6658C5.78686 11.2828 6.15097 11.0033 6.57809 10.8887C7.0052 10.7742 7.46033 10.834 7.84334 11.055L9.65334 12.1017C9.97264 12.2875 10.3446 12.362 10.7109 12.3134C11.0771 12.2649 11.4169 12.096 11.6767 11.8333C13.1602 10.3189 15.0291 9.23837 17.0817 8.70833C17.4411 8.61594 17.7593 8.40625 17.9861 8.1125C18.2128 7.81875 18.335 7.45774 18.3333 7.08667V5C18.3333 4.55797 18.5089 4.13405 18.8215 3.82149C19.1341 3.50893 19.558 3.33333 20 3.33333C20.442 3.33333 20.866 3.50893 21.1785 3.82149C21.4911 4.13405 21.6667 4.55797 21.6667 5V7.08667C21.6665 7.4566 21.7894 7.81607 22.016 8.10847C22.2426 8.40086 22.5601 8.60955 22.9183 8.70167C24.9717 9.23359 26.8407 10.3165 28.3233 11.8333C28.5825 12.0974 28.9221 12.2678 29.2888 12.3176C29.6554 12.3674 30.0282 12.2938 30.3483 12.1083L32.155 11.0633C32.3446 10.9522 32.5544 10.8796 32.7721 10.8498C32.9899 10.8201 33.2114 10.8337 33.4239 10.8898C33.6364 10.946 33.8357 11.0437 34.0103 11.1772C34.1849 11.3107 34.3314 11.4774 34.4413 11.6678C34.5512 11.8581 34.6224 12.0683 34.6507 12.2863C34.679 12.5043 34.664 12.7257 34.6064 12.9378C34.5488 13.1499 34.4498 13.3486 34.3151 13.5223C34.1805 13.696 34.0128 13.8414 33.8217 13.95L32.015 14.9933C31.6968 15.1778 31.4485 15.4625 31.3089 15.8028C31.1693 16.1432 31.1463 16.5202 31.2433 16.875V16.8733Z" fill="#495464"/>
</g>
<defs>
<clipPath id="clip0_3_28">
<rect width="40" height="40" fill="white"/>
</clipPath>
</defs>
</svg>
