<svg width="16" height="15" viewBox="0 0 16 15" fill="none" xmlns="http://www.w3.org/2000/svg">
<g clip-path="url(#clip0_3_31)">
<path d="M14.1011 2.5H12.1611C12.0158 1.79463 11.6315 1.16084 11.0729 0.705449C10.5143 0.250056 9.81555 0.000909078 9.09446 0L7.84279 0C7.1217 0.000909078 6.42297 0.250056 5.86437 0.705449C5.30577 1.16084 4.92146 1.79463 4.7762 2.5H2.83612C2.67013 2.5 2.51095 2.56585 2.39358 2.68306C2.27622 2.80027 2.21028 2.95924 2.21028 3.125C2.21028 3.29076 2.27622 3.44973 2.39358 3.56694C2.51095 3.68415 2.67013 3.75 2.83612 3.75H3.46195V11.875C3.46294 12.7035 3.79294 13.4978 4.37956 14.0836C4.96618 14.6694 5.76152 14.999 6.59112 15H10.3461C11.1757 14.999 11.9711 14.6694 12.5577 14.0836C13.1443 13.4978 13.4743 12.7035 13.4753 11.875V3.75H14.1011C14.2671 3.75 14.4263 3.68415 14.5437 3.56694C14.661 3.44973 14.727 3.29076 14.727 3.125C14.727 2.95924 14.661 2.80027 14.5437 2.68306C14.4263 2.56585 14.2671 2.5 14.1011 2.5ZM7.84279 1.25H9.09446C9.48265 1.25047 9.86119 1.37086 10.1782 1.59465C10.4951 1.81844 10.735 2.13468 10.8649 2.5H6.07231C6.20222 2.13468 6.44211 1.81844 6.75909 1.59465C7.07607 1.37086 7.4546 1.25047 7.84279 1.25ZM12.2236 11.875C12.2236 12.3723 12.0258 12.8492 11.6737 13.2008C11.3216 13.5525 10.8441 13.75 10.3461 13.75H6.59112C6.09318 13.75 5.61563 13.5525 5.26353 13.2008C4.91143 12.8492 4.71362 12.3723 4.71362 11.875V3.75H12.2236V11.875Z" fill="#495464"/>
<path d="M7.21696 11.25C7.38294 11.25 7.54212 11.1842 7.65949 11.0669C7.77686 10.9497 7.84279 10.7908 7.84279 10.625V6.875C7.84279 6.70924 7.77686 6.55027 7.65949 6.43306C7.54212 6.31585 7.38294 6.25 7.21696 6.25C7.05098 6.25 6.8918 6.31585 6.77443 6.43306C6.65706 6.55027 6.59113 6.70924 6.59113 6.875V10.625C6.59113 10.7908 6.65706 10.9497 6.77443 11.0669C6.8918 11.1842 7.05098 11.25 7.21696 11.25Z" fill="#495464"/>
<path d="M9.7203 11.25C9.88628 11.25 10.0455 11.1842 10.1628 11.0669C10.2802 10.9497 10.3461 10.7908 10.3461 10.625V6.875C10.3461 6.70924 10.2802 6.55027 10.1628 6.43306C10.0455 6.31585 9.88628 6.25 9.7203 6.25C9.55432 6.25 9.39514 6.31585 9.27777 6.43306C9.1604 6.55027 9.09447 6.70924 9.09447 6.875V10.625C9.09447 10.7908 9.1604 10.9497 9.27777 11.0669C9.39514 11.1842 9.55432 11.25 9.7203 11.25Z" fill="#495464"/>
</g>
<defs>
<clipPath id="clip0_3_31">
<rect width="15.02" height="15" fill="white" transform="translate(0.958618)"/>
</clipPath>
</defs>
</svg>
